<svg xmlns="http://www.w3.org/2000/svg" width="108" height="66" fill="none"><path fill="#363636" d="M99 5c.7 1.5 1.2 3.2 1.2 4.9v21c0 4.7-3.1 8.6-7.3 10-1.3 4-3.7 7.8-8 10.4-8.7 5.3-31.1 4.9-31.2 4.9-.1 0-22.5.4-31.2-4.9a18.7 18.7 0 0 1-8-10.3 10.5 10.5 0 0 1-7.8-10V9.9c0-1.7.4-3.3 1.1-4.7C4.2 6.2 0 7.9 0 11.4v30C0 51.7 11.8 66 53.7 66c41.8 0 53.6-14.2 53.6-24.5v-30c0-3.6-4.6-5.5-8.3-6.3Z"/><path fill="#363636" d="M20.6 39.5H86a10 10 0 0 0 10-10.1V10.9a10 10 0 0 0-10-10H20.6a10 10 0 0 0-10.1 10v18.5a10 10 0 0 0 10 10Zm63-29a1.6 1.6 0 1 1 0 3.1 1.6 1.6 0 0 1 0-3.1Zm0 4a1.6 1.6 0 1 1 .1 3.1 1.6 1.6 0 0 1 0-3Zm0 4a1.6 1.6 0 1 1 .1 3.2 1.6 1.6 0 0 1 0-3.2Zm0 3.9a1.6 1.6 0 1 1 0 3.1 1.6 1.6 0 0 1 0-3.1Zm0 4a1.6 1.6 0 1 1 .1 3.1 1.6 1.6 0 0 1 0-3Zm-4-16a1.6 1.6 0 1 1 0 3.2 1.6 1.6 0 0 1 0-3.1Zm0 16a1.6 1.6 0 1 1 0 3.1 1.6 1.6 0 0 1 0-3Zm-4-16a1.6 1.6 0 1 1 0 3.2 1.6 1.6 0 0 1 0-3.1Zm0 4.1a1.6 1.6 0 1 1 0 3.1 1.6 1.6 0 0 1 0-3Zm0 4a1.6 1.6 0 1 1 0 3.2 1.6 1.6 0 0 1 0-3.2Zm0 3.9a1.6 1.6 0 1 1 0 3.1 1.6 1.6 0 0 1 0-3.1Zm0 4a1.6 1.6 0 1 1 0 3.1 1.6 1.6 0 0 1 0-3Zm-7.6-16a1.6 1.6 0 1 1 0 3.2 1.6 1.6 0 0 1 0-3.1Zm0 8.1a1.6 1.6 0 1 1 0 3.2 1.6 1.6 0 0 1 0-3.2Zm0 4a1.6 1.6 0 1 1 0 3 1.6 1.6 0 0 1 0-3Zm0 4a1.6 1.6 0 1 1 0 3 1.6 1.6 0 0 1 0-3Zm-4-16a1.6 1.6 0 1 1 0 3.1 1.6 1.6 0 0 1 0-3.1Zm0 8a1.6 1.6 0 1 1 0 3.2 1.6 1.6 0 0 1 0-3.2Zm0 8a1.6 1.6 0 1 1 0 3 1.6 1.6 0 0 1 0-3Zm-4.1-16a1.6 1.6 0 1 1 0 3.1 1.6 1.6 0 0 1 0-3.1Zm0 4a1.6 1.6 0 1 1 0 3.1 1.6 1.6 0 0 1 0-3Zm0 4a1.6 1.6 0 1 1 0 3.2 1.6 1.6 0 0 1 0-3.2Zm0 8a1.6 1.6 0 1 1 0 3 1.6 1.6 0 0 1 0-3Zm-8.3-16a1.6 1.6 0 1 1 0 3.1 1.6 1.6 0 0 1 0-3.1Zm0 4a1.6 1.6 0 1 1 0 3.1 1.6 1.6 0 0 1 0-3Zm0 4a1.6 1.6 0 1 1 0 3.2 1.6 1.6 0 0 1 0-3.2Zm0 4a1.6 1.6 0 1 1 0 3 1.6 1.6 0 0 1 0-3Zm0 4a1.6 1.6 0 1 1 0 3 1.6 1.6 0 0 1 0-3Zm-4-12a1.6 1.6 0 1 1 0 3.1 1.6 1.6 0 0 1 0-3Zm-8.5-.2a1.6 1.6 0 1 1 0 3.1 1.6 1.6 0 0 1 0-3.1Zm0 4a1.6 1.6 0 1 1 0 3.2 1.6 1.6 0 0 1 0-3.2Zm-4-8a1.6 1.6 0 1 1 0 3 1.6 1.6 0 0 1 0-3Zm0 4a1.6 1.6 0 1 1 0 3.1 1.6 1.6 0 0 1 0-3.1Zm0 4a1.6 1.6 0 1 1 0 3.2 1.6 1.6 0 0 1 0-3.2Zm0 4a1.6 1.6 0 1 1 0 3.2 1.6 1.6 0 0 1 0-3.1Zm-4.3-8a1.6 1.6 0 1 1 0 3.1 1.6 1.6 0 0 1 0-3.1Zm0 4a1.6 1.6 0 1 1 0 3.2 1.6 1.6 0 0 1 0-3.2Zm0 4a1.6 1.6 0 1 1 0 3.2 1.6 1.6 0 0 1 0-3.1Zm0 4.1a1.6 1.6 0 1 1 0 3.1 1.6 1.6 0 0 1 0-3Zm-4.5-16.1a1.6 1.6 0 1 1 0 3.1 1.6 1.6 0 0 1 0-3.1Zm0 4a1.6 1.6 0 1 1 0 3.1 1.6 1.6 0 0 1 0-3.1Zm0 4a1.6 1.6 0 1 1 0 3.2 1.6 1.6 0 0 1 0-3.2Zm0 4a1.6 1.6 0 1 1 0 3.2 1.6 1.6 0 0 1 0-3.1Zm-4-8a1.6 1.6 0 1 1 0 3.1 1.6 1.6 0 0 1 0-3.1Zm0 4a1.6 1.6 0 1 1 0 3.2 1.6 1.6 0 0 1 0-3.2Z"/></svg>