<svg xmlns="http://www.w3.org/2000/svg" width="136" height="165" fill="none">
  <g clip-path="url(#a)">
    <path fill="#fff" d="M93.1 39.3c8.2 0 15-5.6 17-13l5.4.7h.3a2.2 2.2 0 0 0 .3-4.2l-5.5-.9v-.6s-.5-6.6-1-9.3c-.7-2.7-2.6-3.3-2.6-3.3-9.8-2.2-19.8-2.4-22.4-2.4-2.6 0-3.2 1.3-3.2 1.3l-3.1 5-.2.4a17.5 17.5 0 0 0 15.1 26.2Zm38.4 39.3-26.7-2.2-9.3-21.1s-.4-2.8-6-8.5c-5.5-5.7-16.8-3.4-16.8-3.4S49 48 41 49.7c-7.9 1.9-8.2 10-8.2 10l-.6 4.4-15.2-3a3 3 0 0 0-3.5 2.5l-7.4 38.2a3 3 0 0 0 2.4 3.5l51.2 10h.3-1.3l-9.4-2-3 17.2-23.6 20.4a7.4 7.4 0 1 0 9.8 11l29.6-23.5c1.9-1.6 2.8-3.9 2.8-3.9s4.5-14 5.8-16.9c.8-2 4.9-1 4.9-1l22.9 8.6 7.6 29c0 .7.2 1.3.5 1.8a7.4 7.4 0 0 0 14-4.5c-.8-5-4.5-27-5.5-31.8-1-5.4-4.6-7-4.6-7l-22.7-12.3c-1.3-.7-1-2.7-1-2.7l3.9-14.4 2.8 5.9s1.6 3.3 4 3.4l33.4.8a7.4 7.4 0 0 0 .6-14.8ZM60.1 63.3l-1.8 5.9 10 2-20.3-4 .5-2.5 11.6-1.4Zm-2.2 45.5L12.6 100l6.2-32.4 12.6 2.5-1.7 11.5-.6 4.5v1.2a7.4 7.4 0 1 0 14.7-1l3-13.3L64 76.5l-6 32.3ZM25 17.5h38a2 2 0 0 0 2-2c0-1-.8-2-2-2H25a2 2 0 0 0-2 2c0 1.1 1 2 2 2Zm13 6a2 2 0 0 0-2 2c0 1.1 1 2 2 2h23a2 2 0 0 0 2-2 2 2 0 0 0-2-2H38Z"/>
    <path fill="#3A3A3A" d="M87.1 33.2c8.1 0 15-5.5 16.9-13l5.5.8h.3a2.2 2.2 0 0 0 .3-4.3l-5.5-.8v-.7s-.5-6.5-1.1-9.2c-.6-2.7-2.6-3.3-2.6-3.3C91.2.5 81.2.3 78.6.3c-2.6 0-3.2 1.3-3.2 1.3l-3.1 5-.3.3a17.5 17.5 0 0 0 15.1 26.2Zm38.4 39.3-26.7-2.1-9.3-21.1s-.4-2.8-6-8.5C78 35 66.7 37.4 66.7 37.4S42.8 41.9 35 43.7c-7.9 1.9-8.2 9.9-8.2 9.9l-3 22L23 80v.2l-.1 1a7.4 7.4 0 1 0 14.8-1l4.7-21.5L54 57.3l-1.8 5.9 9.9 1.9a3 3 0 0 1 2.4 3.5L57 106.8a3 3 0 0 1-3 2.5l-1.3-.1-9.4-1.8-3.1 17-23.6 20.4a7.4 7.4 0 1 0 9.9 11.1l29.6-23.6a11 11 0 0 0 2.7-3.8s4.6-14 5.8-17c.9-2 5-1 5-1l22.8 8.6 7.7 29.1c0 .6.2 1.2.4 1.8a7.4 7.4 0 0 0 14.1-4.5l-5.5-31.8c-1.1-5.4-4.6-7-4.6-7L81.8 94.4c-1.4-.8-1-2.8-1-2.8l3.9-14.3 2.7 5.9s1.7 3.2 4.1 3.4l33.4.8a7.4 7.4 0 0 0 .6-14.9Z"/>
    <path fill="#F0C42E" d="M54 109.6h.2a3 3 0 0 0 3-2.4L64.5 69a3 3 0 0 0-2.4-3.5l-20.2-4-1.3 6L58 70.7 51.8 103 6.5 94.4 12.8 62l12.5 2.4.9-5.9-15.2-3A3 3 0 0 0 7.5 58L0 96.2a3 3 0 0 0 2.3 3.5l51.2 10h.4Z"/>
    <path fill="#F0C52E" d="M59 9.5c0 1-.9 2-2 2H19a2 2 0 0 1-2-2c0-1.1 1-2 2-2h38a2 2 0 0 1 2 2Zm-2 10c0 1-.9 2-2 2H32a2 2 0 0 1-2-2c0-1.1 1-2 2-2h23a2 2 0 0 1 2 2Z"/>
  </g>
  <defs>
    <clipPath id="a">
      <path fill="#fff" d="M0 .5h136v164H0z"/>
    </clipPath>
  </defs>
</svg>
